<?xml version="1.0" encoding="UTF-8" standalone="no"?>
<!-- Created with Inkscape (http://www.inkscape.org/) -->

<svg
   width="255mm"
   height="255mm"
   viewBox="0 0 255 255"
   version="1.1"
   id="svg1"
   inkscape:version="1.4.2 (f4327f4, 2025-05-13)"
   sodipodi:docname="logo.svg"
   xmlns:inkscape="http://www.inkscape.org/namespaces/inkscape"
   xmlns:sodipodi="http://sodipodi.sourceforge.net/DTD/sodipodi-0.dtd"
   xmlns="http://www.w3.org/2000/svg"
   xmlns:svg="http://www.w3.org/2000/svg">
  <sodipodi:namedview
     id="namedview1"
     pagecolor="#505050"
     bordercolor="#eeeeee"
     borderopacity="1"
     inkscape:showpageshadow="0"
     inkscape:pageopacity="0"
     inkscape:pagecheckerboard="0"
     inkscape:deskcolor="#505050"
     inkscape:document-units="mm"
     inkscape:zoom="0.50835204"
     inkscape:cx="834.06767"
     inkscape:cy="290.15326"
     inkscape:window-width="1920"
     inkscape:window-height="1009"
     inkscape:window-x="-8"
     inkscape:window-y="-8"
     inkscape:window-maximized="1"
     inkscape:current-layer="g58" />
  <defs
     id="defs1" />
  <g
     inkscape:label="Layer 1"
     inkscape:groupmode="layer"
     id="layer1" />
  <g
     id="g58">
    <path
       id="path48"
       style="font-style:normal;font-variant:normal;font-weight:normal;font-stretch:normal;font-size:89.9583px;font-family:'Cascadia Mono';-inkscape-font-specification:'Cascadia Mono';text-align:start;writing-mode:lr-tb;direction:ltr;text-anchor:start;display:inline;fill:#38bdf8;stroke-width:0.567514;fill-opacity:1"
       d="m 148.50313,59.89523 c -6.52363,-2.554538 -14.07974,-3.83157 -22.66873,-3.83157 -6.06381,0 -11.64354,0.674501 -16.83953,1.884379 h 1.0541 v 17.900712 h -29.993 C 71.971233,85.885402 67.494463,99.314366 66.265946,115.79668 h 19.938583 c 1.031539,-12.29403 4.56874,-22.061028 10.61091,-29.30119 7.348861,-8.730725 17.084441,-13.095989 29.206961,-13.095989 5.07398,0 9.77316,1.155596 14.09745,3.46708 z" />
    <path
       id="path46"
       style="font-style:normal;font-variant:normal;font-weight:normal;font-stretch:normal;font-size:89.9583px;font-family:'Cascadia Mono';-inkscape-font-specification:'Cascadia Mono';text-align:start;writing-mode:lr-tb;direction:ltr;text-anchor:start;display:inline;fill:#38bdf8;stroke-width:0.567514;fill-opacity:1"
       d="M 97.408177,165.45145 C 91.25127,158.42887 87.561961,148.54981 86.339886,135.81451 H 66.228347 c 1.142813,16.88684 5.323788,30.41472 12.946477,40.13637 h 13.046889 z" />
    <path
       id="path35"
       style="font-size:89.9583px;text-align:start;writing-mode:lr-tb;direction:ltr;text-anchor:start;fill:#facc15;stroke-width:0.567514;fill-opacity:1"
       d="M 38.302199,57.194537 H 15.843152 v 17.900712 4.558338 z" />
    <path
       id="path51"
       style="font-size:89.9583px;text-align:start;writing-mode:lr-tb;direction:ltr;text-anchor:start;fill:#38bdf8;stroke-width:0.567514;fill-opacity:1"
       d="m 84.028018,183.37358 c -3.235673,-2.43396 -6.115909,-5.26101 -8.640716,-8.48104 H 36.498328 v -40.13637 h 25.725307 c -0.191586,-2.90899 -0.28708,-5.92373 -0.28708,-9.04457 0,-3.04858 0.103082,-6.00094 0.308312,-8.85659 H 36.498328 V 76.907085 H 76.16671 c 0.488868,-0.608541 0.989901,-1.204856 1.503964,-1.789717 7.095128,-8.114784 16.158594,-13.485111 27.190746,-16.110995 H 40.114035 l -22.459049,22.45905 v 35.389597 17.90116 40.13636 17.90117 h 61.719591 z" />
    <path
       id="path57"
       style="font-style:normal;font-variant:normal;font-weight:normal;font-stretch:normal;font-size:89.9583px;font-family:'Cascadia Mono';-inkscape-font-specification:'Cascadia Mono';text-align:start;writing-mode:lr-tb;direction:ltr;text-anchor:start;display:inline;fill:#facc15;stroke-width:0.567514;fill-opacity:1"
       d="m 152.12682,62.612983 -8.38327,16.971351 c 0.0117,0.0062 0.0237,0.01231 0.0354,0.01857 0.84717,0.447777 1.66532,0.932125 2.45412,1.452209 1.04774,-1.490326 2.16229,-2.916448 3.34499,-4.278335 3.29467,-3.813855 7.01206,-7.022181 11.151,-9.623601 -2.10317,-1.505042 -4.4872,-2.819423 -7.15178,-3.943925 -0.47769,-0.205973 -0.96114,-0.404676 -1.45044,-0.596278 z" />
    <path
       id="path55"
       style="font-style:normal;font-variant:normal;font-weight:normal;font-stretch:normal;font-size:89.9583px;font-family:'Cascadia Mono';-inkscape-font-specification:'Cascadia Mono';text-align:start;writing-mode:lr-tb;direction:ltr;text-anchor:start;display:inline;fill:#38bdf8;stroke-width:0.567514;fill-opacity:1"
       d="m 101.03184,168.16921 -5.186455,10.49943 h 17.710945 v 17.90116 h -0.75154 c 5.73679,1.25613 12.04134,1.88439 18.91412,1.88439 11.39919,0 22.29298,-1.90827 32.68202,-5.72436 -6.02636,-2.80687 -11.15566,-6.64585 -15.38821,-11.51727 -0.39164,-0.45075 -0.77514,-0.91079 -1.15141,-1.37923 -4.28436,0.85635 -8.59752,1.28501 -12.93896,1.28501 -15.0251,0 -26.32203,-4.3165 -33.89051,-12.94913 z" />
    <path
       id="path50"
       style="font-style:normal;font-variant:normal;font-weight:normal;font-stretch:normal;font-size:89.9583px;font-family:'Cascadia Mono';-inkscape-font-specification:'Cascadia Mono';text-align:start;writing-mode:lr-tb;direction:ltr;text-anchor:start;fill:#facc15;stroke-width:0.567514;fill-opacity:1"
       d="m 233.90924,179.51416 -18.3634,18.36384 c 1.51746,-0.24519 2.99046,-0.52433 4.41944,-0.83734 6.65797,-1.50747 11.30589,-2.66956 13.94396,-3.4861 z" />
    <path
       id="path52"
       style="font-style:normal;font-variant:normal;font-weight:normal;font-stretch:normal;font-size:89.9583px;font-family:'Cascadia Mono';-inkscape-font-specification:'Cascadia Mono';text-align:start;writing-mode:lr-tb;direction:ltr;text-anchor:start;fill:#38bdf8;stroke-width:0.567514;fill-opacity:1"
       d="m 194.78759,59.839747 c -12.76721,0 -23.59045,2.790168 -32.47103,8.371772 3.30096,2.362088 5.91029,5.193518 7.82858,8.492974 l -13.94397,13.849741 c -2.28192,-3.448208 -5.07523,-6.261669 -8.38061,-8.440778 -8.13342,11.569125 -12.20069,27.007704 -12.20069,46.315904 0,22.08733 4.60989,38.8689 13.82895,50.34563 4.70352,-0.9401 9.3725,-2.39589 14.00722,-4.36812 l 4.33363,16.58208 c -0.59865,0.23395 -1.19919,0.46142 -1.80123,0.68254 8.19312,3.81607 18.0442,5.72436 29.5529,5.72436 6.64219,0 12.70667,-0.44325 18.19266,-1.32969 l 18.3634,-18.36385 v -49.08452 h -0.56531 -17.3469 v 17.90115 h 0.0106 v 31.67217 c -0.21784,0.0568 -0.43772,0.11526 -0.65953,0.17295 -4.52239,1.1306 -9.76709,1.69594 -15.73412,1.69594 -13.94402,0 -24.43342,-4.36571 -31.46824,-13.09643 -7.03483,-8.79354 -10.55208,-21.95214 -10.55208,-39.4764 0,-16.01678 3.51725,-28.39065 10.55208,-37.121375 7.03482,-8.793528 16.89648,-13.190207 29.58431,-13.190207 5.02486,0 9.70422,1.161658 14.03817,3.485658 4.39677,2.324 8.03964,5.621853 10.92896,9.892988 l 14.03817,-13.94396 c -3.32899,-5.338929 -8.51084,-9.453376 -15.54567,-12.34268 -7.03483,-2.952114 -15.23144,-4.427847 -24.59026,-4.427847 z" />
    <g
       id="g11"
       transform="matrix(2.9079102,0,0,2.9079102,34.41253,-206.2845)"
       style="fill:#facc15;fill-opacity:1;stroke:none;stroke-opacity:1">
      <path
         id="path24"
         style="fill:#facc15;fill-opacity:1;stroke:none;stroke-width:0.264583;stroke-opacity:1"
         d="m 56.082196,115.1883 -2.310454,6.12159 h 1.155485 l 2.310454,-6.12159 z" />
      <g
         id="g16"
         transform="matrix(0.17158609,0,0,0.17158609,48.711358,98.648715)"
         style="fill:#facc15;fill-opacity:1;stroke:none;stroke-opacity:1">
        <path
           id="path10"
           style="font-size:89.9583px;text-align:start;writing-mode:lr-tb;direction:ltr;text-anchor:start;fill:#facc15;fill-opacity:1;stroke:none;stroke-width:0.151728;stroke-opacity:1"
           inkscape:transform-center-x="2.379483"
           d="M 19.393722,96.280945 5.9557088,114.77695 18.518618,132.06833 h 1.62604 L 7.6090118,114.8143 21.047025,96.318284 v -0.03734 z" />
        <path
           id="path9"
           style="font-size:89.9583px;text-align:start;writing-mode:lr-tb;direction:ltr;text-anchor:start;fill:#facc15;fill-opacity:1;stroke:none;stroke-width:0.151728;stroke-opacity:1"
           inkscape:transform-center-x="2.379483"
           d="M 20.517858,96.31829 7.0798451,114.8143 19.642754,132.10567 h 1.62604 L 8.7331481,114.85165 22.171161,96.355629 v -0.03734 z" />
        <path
           id="path11"
           style="font-size:89.9583px;text-align:start;writing-mode:lr-tb;direction:ltr;text-anchor:start;fill:#facc15;fill-opacity:1;stroke:none;stroke-width:0.151728;stroke-opacity:1"
           inkscape:transform-center-x="2.379483"
           d="M 21.641994,96.355635 8.2039814,114.85165 20.76689,132.14301 h 1.62604 L 9.8572843,114.889 23.295297,96.392974 v -0.03734 z"
           sodipodi:nodetypes="cccccccc" />
        <path
           id="path14"
           style="font-size:89.9583px;text-align:start;writing-mode:lr-tb;direction:ltr;text-anchor:start;fill:#facc15;fill-opacity:1;stroke:none;stroke-width:0.151728;stroke-opacity:1"
           inkscape:transform-center-x="2.379483"
           d="M 22.225433,96.280945 8.7874202,114.77695 21.350329,132.06833 h 1.62604 L 10.440723,114.8143 23.878736,96.318284 v -0.03734 z" />
        <path
           id="path15"
           style="font-size:89.9583px;text-align:start;writing-mode:lr-tb;direction:ltr;text-anchor:start;fill:#facc15;fill-opacity:1;stroke:none;stroke-width:0.151728;stroke-opacity:1"
           inkscape:transform-center-x="2.379483"
           d="M 23.349569,96.31829 9.9115565,114.8143 22.474465,132.10567 h 1.62604 L 11.564859,114.85165 25.002872,96.355629 v -0.03734 z" />
        <path
           id="path16"
           style="font-size:89.9583px;text-align:start;writing-mode:lr-tb;direction:ltr;text-anchor:start;fill:#facc15;fill-opacity:1;stroke:none;stroke-width:0.151728;stroke-opacity:1"
           inkscape:transform-center-x="2.379483"
           d="m 24.473705,96.355635 -13.438012,18.496015 12.562908,17.29136 h 1.62604 L 12.688996,114.889 26.127008,96.392974 v -0.03734 z"
           sodipodi:nodetypes="cccccccc" />
      </g>
      <g
         id="g22"
         transform="matrix(-0.17158609,0,0,-0.17158609,62.298064,137.8495)"
         style="fill:#facc15;fill-opacity:1;stroke:none;stroke-opacity:1">
        <path
           id="path17"
           style="font-size:89.9583px;text-align:start;writing-mode:lr-tb;direction:ltr;text-anchor:start;fill:#facc15;fill-opacity:1;stroke:none;stroke-width:0.151728;stroke-opacity:1"
           inkscape:transform-center-x="2.379483"
           d="M 19.393722,96.280945 5.9557088,114.77695 18.518618,132.06833 h 1.62604 L 7.6090118,114.8143 21.047025,96.318284 v -0.03734 z" />
        <path
           id="path18"
           style="font-size:89.9583px;text-align:start;writing-mode:lr-tb;direction:ltr;text-anchor:start;fill:#facc15;fill-opacity:1;stroke:none;stroke-width:0.151728;stroke-opacity:1"
           inkscape:transform-center-x="2.379483"
           d="M 20.517858,96.31829 7.0798451,114.8143 19.642754,132.10567 h 1.62604 L 8.7331481,114.85165 22.171161,96.355629 v -0.03734 z" />
        <path
           id="path19"
           style="font-size:89.9583px;text-align:start;writing-mode:lr-tb;direction:ltr;text-anchor:start;fill:#facc15;fill-opacity:1;stroke:none;stroke-width:0.151728;stroke-opacity:1"
           inkscape:transform-center-x="2.379483"
           d="M 21.641994,96.355635 8.2039814,114.85165 20.76689,132.14301 h 1.62604 L 9.8572843,114.889 23.295297,96.392974 v -0.03734 z"
           sodipodi:nodetypes="cccccccc" />
        <path
           id="path20"
           style="font-size:89.9583px;text-align:start;writing-mode:lr-tb;direction:ltr;text-anchor:start;fill:#facc15;fill-opacity:1;stroke:none;stroke-width:0.151728;stroke-opacity:1"
           inkscape:transform-center-x="2.379483"
           d="M 22.225433,96.280945 8.7874202,114.77695 21.350329,132.06833 h 1.62604 L 10.440723,114.8143 23.878736,96.318284 v -0.03734 z" />
        <path
           id="path21"
           style="font-size:89.9583px;text-align:start;writing-mode:lr-tb;direction:ltr;text-anchor:start;fill:#facc15;fill-opacity:1;stroke:none;stroke-width:0.151728;stroke-opacity:1"
           inkscape:transform-center-x="2.379483"
           d="M 23.349569,96.31829 9.9115565,114.8143 22.474465,132.10567 h 1.62604 L 11.564859,114.85165 25.002872,96.355629 v -0.03734 z" />
        <path
           id="path22"
           style="font-size:89.9583px;text-align:start;writing-mode:lr-tb;direction:ltr;text-anchor:start;fill:#facc15;fill-opacity:1;stroke:none;stroke-width:0.151728;stroke-opacity:1"
           inkscape:transform-center-x="2.379483"
           d="m 24.473705,96.355635 -13.438012,18.496015 12.562908,17.29136 h 1.62604 L 12.688996,114.889 26.127008,96.392974 v -0.03734 z"
           sodipodi:nodetypes="cccccccc" />
      </g>
    </g>
    <path
       id="path56"
       style="font-size:89.9583px;text-align:start;writing-mode:lr-tb;direction:ltr;text-anchor:start;fill:#facc15;stroke-width:0.567514;fill-opacity:1"
       d="m 87.65169,186.09134 -4.653442,9.42012 h 26.018122 c -8.31484,-1.82066 -15.436337,-4.96067 -21.36468,-9.42012 z" />
  </g>
</svg>
